<svg class="animated" id="freepik_stories-designer-girl" xmlns="http://www.w3.org/2000/svg" viewBox="0 0 500 500" version="1.1" xmlns:xlink="http://www.w3.org/1999/xlink" xmlns:svgjs="http://svgjs.com/svgjs"><style>svg#freepik_stories-designer-girl:not(.animated) .animable {opacity: 0;}svg#freepik_stories-designer-girl.animated #freepik--Screen--inject-158 {animation: 1s 1 forwards cubic-bezier(.36,-0.01,.5,1.38) slideDown,6s Infinite  linear floating;animation-delay: 0s,1s;}            @keyframes slideDown {                0% {                    opacity: 0;                    transform: translateY(-30px);                }                100% {                    opacity: 1;                    transform: translateY(0);                }            }                    @keyframes floating {                0% {                    opacity: 1;                    transform: translateY(0px);                }                50% {                    transform: translateY(-10px);                }                100% {                    opacity: 1;                    transform: translateY(0px);                }            }        </style><g id="freepik--Shadow--inject-158" class="animable" style="transform-origin: 250px 416.24px;"><ellipse id="freepik--shape--inject-158" cx="250" cy="416.24" rx="193.89" ry="11.32" style="fill: rgb(245, 245, 245); transform-origin: 250px 416.24px;" class="animable"></ellipse></g><g id="freepik--background-complete--inject-158" class="animable" style="transform-origin: 250px 226.87px;"><rect y="382.4" width="500" height="0.25" style="fill: rgb(235, 235, 235); transform-origin: 250px 382.525px;" id="elbzbhigaywb5" class="animable"></rect><rect x="102.02" y="398.49" width="33.12" height="0.25" style="fill: rgb(235, 235, 235); transform-origin: 118.58px 398.615px;" id="el17q5wlu332c" class="animable"></rect><rect x="171.14" y="390.92" width="43.55" height="0.25" style="fill: rgb(235, 235, 235); transform-origin: 192.915px 391.045px;" id="el84xjv5ixq0l" class="animable"></rect><rect x="52.46" y="389.21" width="48.56" height="0.25" style="fill: rgb(235, 235, 235); transform-origin: 76.74px 389.335px;" id="elp7s21101hrj" class="animable"></rect><rect x="247.61" y="392.59" width="34.29" height="0.25" style="fill: rgb(235, 235, 235); transform-origin: 264.755px 392.715px;" id="elf91lqfumz2f" class="animable"></rect><rect x="290.8" y="392.59" width="48.57" height="0.25" style="fill: rgb(235, 235, 235); transform-origin: 315.085px 392.715px;" id="elxfp449vzgni" class="animable"></rect><rect x="326.62" y="396.81" width="93.68" height="0.25" style="fill: rgb(235, 235, 235); transform-origin: 373.46px 396.935px;" id="el1zk947xucmv" class="animable"></rect><path d="M237,337.8H43.91a5.71,5.71,0,0,1-5.7-5.71V60.66A5.71,5.71,0,0,1,43.91,55H237a5.71,5.71,0,0,1,5.71,5.71h0V332.09A5.71,5.71,0,0,1,237,337.8ZM43.91,55.2a5.46,5.46,0,0,0-5.45,5.46V332.09a5.46,5.46,0,0,0,5.45,5.46H237a5.48,5.48,0,0,0,5.46-5.46V60.66A5.48,5.48,0,0,0,237,55.2Z" style="fill: rgb(235, 235, 235); transform-origin: 140.46px 196.4px;" id="ele9tgbabxntp" class="animable"></path><path d="M453.31,337.8H260.21a5.73,5.73,0,0,1-5.71-5.71V60.66A5.72,5.72,0,0,1,260.21,55h193.1A5.71,5.71,0,0,1,459,60.66V332.09A5.7,5.7,0,0,1,453.31,337.8ZM260.21,55.2a5.48,5.48,0,0,0-5.46,5.46V332.09a5.48,5.48,0,0,0,5.46,5.46h193.1a5.48,5.48,0,0,0,5.46-5.46V60.66a5.48,5.48,0,0,0-5.46-5.46Z" style="fill: rgb(235, 235, 235); transform-origin: 356.75px 196.4px;" id="el6vhusm2y44y" class="animable"></path><rect x="122.25" y="154.24" width="97.77" height="228.16" style="fill: rgb(224, 224, 224); transform-origin: 171.135px 268.32px;" id="eleekxnz1tse" class="animable"></rect><rect x="107.45" y="154.24" width="97.77" height="228.16" style="fill: rgb(240, 240, 240); transform-origin: 156.335px 268.32px;" id="elof7tru55icc" class="animable"></rect><rect x="116.93" y="327.95" width="79.55" height="41.3" style="fill: rgb(224, 224, 224); transform-origin: 156.705px 348.6px;" id="el5v5pflkv5fx" class="animable"></rect><rect x="116.93" y="273.78" width="79.55" height="41.31" style="fill: rgb(224, 224, 224); transform-origin: 156.705px 294.435px;" id="eltuyskl1827" class="animable"></rect><rect x="116.93" y="219.62" width="79.55" height="41.31" style="fill: rgb(224, 224, 224); transform-origin: 156.705px 240.275px;" id="elgyg0lx6ilc" class="animable"></rect><rect x="116.93" y="165.46" width="79.55" height="41.31" style="fill: rgb(224, 224, 224); transform-origin: 156.705px 186.115px;" id="el9kap916wnhr" class="animable"></rect><g id="el75s9f89l417"><rect x="116.93" y="165.46" width="16.62" height="41.31" style="opacity: 0.05; transform-origin: 125.24px 186.115px;" class="animable" id="elkddt57uc11i"></rect></g><g id="elngrk6hx42la"><rect x="116.93" y="219.62" width="16.62" height="41.31" style="opacity: 0.05; transform-origin: 125.24px 240.275px;" class="animable" id="elpowzddcjn6o"></rect></g><g id="el7rsviszeiii"><rect x="116.93" y="273.78" width="16.62" height="41.31" style="opacity: 0.05; transform-origin: 125.24px 294.435px;" class="animable" id="el9h004mnria"></rect></g><g id="elnkdsqxnbz8e"><rect x="116.93" y="327.95" width="16.62" height="41.3" style="opacity: 0.05; transform-origin: 125.24px 348.6px;" class="animable" id="elkt1bd8mri1r"></rect></g><rect x="60" y="78.77" width="69.85" height="69.85" style="fill: rgb(224, 224, 224); transform-origin: 94.925px 113.695px;" id="elh8rzla27hf" class="animable"></rect><rect x="56.34" y="78.77" width="69.85" height="69.85" style="fill: rgb(235, 235, 235); transform-origin: 91.265px 113.695px;" id="eltctqeilonp" class="animable"></rect><rect x="64.38" y="86.81" width="53.78" height="53.78" style="fill: rgb(245, 245, 245); transform-origin: 91.27px 113.7px;" id="el062x0thid5ys" class="animable"></rect><rect x="64.38" y="86.81" width="1.78" height="53.78" style="fill: rgb(224, 224, 224); transform-origin: 65.27px 113.7px;" id="elsi025nn1d7h" class="animable"></rect><g id="elaxjhjzpgpek"><circle cx="91.96" cy="113.69" r="10.66" style="fill: rgb(250, 250, 250); transform-origin: 91.96px 113.69px; transform: rotate(-44.26deg);" class="animable" id="el602j8c30r7k"></circle></g><path d="M56.16,365.49s-5.51-4.75-9.32-15.62S34.2,326.54,34.2,326.54,45.75,332,49.82,342.39c0,0-5-21.06-15.62-28.76,0,0,19,6.12,23.77,25.93,0,0,3.17-15.73-2-31.36,0,0,9.73,12.23,10.87,27.4,0,0,1.35-26.27,10-34,0,0-2.72,23.78,0,35.78,0,0,3.85-21.06,21.06-24,0,0-11.1,13.36-10.64,25.13a26,26,0,0,1,21.06-14.71S96,332.43,94.89,346.47s-1.14,18.34-8.61,20.38S56.16,365.49,56.16,365.49Z" style="fill: rgb(245, 245, 245); transform-origin: 71.26px 334.551px;" id="elhjfmzcy1vsl" class="animable"></path><path d="M44.21,352.64V380s3.52,9.8,26.13,11.06,27.89-10.81,27.89-10.81V352.64Z" style="fill: rgb(230, 230, 230); transform-origin: 71.22px 371.896px;" id="elgbtdoj7ki6" class="animable"></path><rect x="303.95" y="275.28" width="141.65" height="107.95" style="fill: rgb(224, 224, 224); transform-origin: 374.775px 329.255px;" id="el5chm7buqaki" class="animable"></rect><rect x="268.68" y="275.28" width="141.65" height="107.95" style="fill: rgb(235, 235, 235); transform-origin: 339.505px 329.255px;" id="elpgxqoz2emse" class="animable"></rect><rect x="273.74" y="285.27" width="129.54" height="39.99" style="fill: none; stroke: rgb(224, 224, 224); stroke-miterlimit: 10; transform-origin: 338.51px 305.265px;" id="el6oyecx0dnqn" class="animable"></rect><rect x="273.74" y="331.92" width="129.54" height="39.99" style="fill: none; stroke: rgb(224, 224, 224); stroke-miterlimit: 10; transform-origin: 338.51px 351.915px;" id="elxs0tdm6lzg8" class="animable"></rect><circle cx="338.51" cy="305.26" r="3.63" style="fill: rgb(224, 224, 224); transform-origin: 338.51px 305.26px;" id="el3exv28bpiwp" class="animable"></circle><circle cx="338.51" cy="354.96" r="3.63" style="fill: rgb(224, 224, 224); transform-origin: 338.51px 354.96px;" id="ell43t60ge58l" class="animable"></circle><rect x="262.44" y="269.52" width="188.43" height="5.76" style="fill: rgb(224, 224, 224); transform-origin: 356.655px 272.4px;" id="elrd8csv71h6a" class="animable"></rect><g id="el5pzgla0oguj"><rect x="415.68" y="269.52" width="35.19" height="5.76" style="opacity: 0.05; transform-origin: 433.275px 272.4px;" class="animable" id="el9z8nwu04xs"></rect></g><rect x="291.95" y="108.52" width="156.88" height="88.7" style="fill: rgb(224, 224, 224); transform-origin: 370.39px 152.87px;" id="elbhmy676mvst" class="animable"></rect><rect x="287.85" y="108.52" width="156.88" height="88.7" style="fill: rgb(240, 240, 240); transform-origin: 366.29px 152.87px;" id="elus9epdvjy2" class="animable"></rect><rect x="293.97" y="115.22" width="144.16" height="75.73" style="fill: rgb(245, 245, 245); transform-origin: 366.05px 153.085px;" id="ele4fmkux18vt" class="animable"></rect><rect x="293.97" y="115.22" width="1.57" height="75.73" style="fill: rgb(224, 224, 224); transform-origin: 294.755px 153.085px;" id="el13rvvuam6av" class="animable"></rect><g id="elchvt1xwqtbb"><rect x="408.83" y="135.28" width="19.47" height="15.91" style="fill: rgb(250, 250, 250); transform-origin: 418.565px 143.235px; transform: rotate(20.58deg);" class="animable" id="elw55wyt053xo"></rect></g><circle cx="413.62" cy="135.41" r="0.69" style="fill: rgb(230, 230, 230); transform-origin: 413.62px 135.41px;" id="elazd9c1gqr86" class="animable"></circle><polygon points="342.8 158.73 381.58 162.63 379.21 178.05 341.87 173.58 342.8 158.73" style="fill: rgb(250, 250, 250); transform-origin: 361.725px 168.39px;" id="els1jgmyui1qb" class="animable"></polygon><path d="M379.55,165.46a.69.69,0,1,1-.69-.69A.69.69,0,0,1,379.55,165.46Z" style="fill: rgb(230, 230, 230); transform-origin: 378.86px 165.46px;" id="elpdsid3sbhsg" class="animable"></path><polygon points="364 269.52 372.57 225.72 412.7 225.72 404.36 269.52 364 269.52" style="fill: rgb(235, 235, 235); transform-origin: 388.35px 247.62px;" id="el78v3d1fr44o" class="animable"></polygon><polygon points="370.11 264.03 376.53 231.21 406.6 231.21 400.35 264.03 370.11 264.03" style="fill: rgb(250, 250, 250); transform-origin: 388.355px 247.62px;" id="el1zbtyxfmqh8" class="animable"></polygon><polygon points="378.08 231.21 371.86 264.03 370.11 264.03 376.53 231.21 378.08 231.21" style="fill: rgb(230, 230, 230); transform-origin: 374.095px 247.62px;" id="els15faszkrc" class="animable"></polygon><polygon points="412.7 225.72 414.36 225.72 406.6 269.52 404.36 269.52 412.7 225.72" style="fill: rgb(230, 230, 230); transform-origin: 409.36px 247.62px;" id="el9logssopiec" class="animable"></polygon><polygon points="411.52 241.7 417.21 269.52 406.6 269.52 411.52 241.7" style="fill: rgb(224, 224, 224); transform-origin: 411.905px 255.61px;" id="elbfnzpinbov5" class="animable"></polygon></g><g id="freepik--Screen--inject-158" class="animable" style="transform-origin: 204.7px 155.625px;"><path d="M324.2,100.28V220.07a14.81,14.81,0,0,1-14.81,14.82H297.5V100.28Z" style="fill: #7E57C2; transform-origin: 310.85px 167.585px;" id="elohobx0a8nqk" class="animable"></path><g id="elu8y4ksq9s38"><path d="M324.2,100.28V220.07a14.81,14.81,0,0,1-14.81,14.82H297.5V100.28Z" style="fill: rgb(255, 255, 255); opacity: 0.8; transform-origin: 310.85px 167.585px;" class="animable" id="elom1jrj210f"></path></g><path d="M324.2,91.18V220.07a14.81,14.81,0,0,1-14.81,14.82H100.06a14.82,14.82,0,0,1-14.82-14.82V91.18a14.81,14.81,0,0,1,14.82-14.82H309.39A14.81,14.81,0,0,1,324.2,91.18Z" style="fill: rgb(255, 255, 255); stroke: #7E57C2; stroke-miterlimit: 10; transform-origin: 204.72px 155.625px;" id="elxlnpie1sgmi" class="animable"></path><path d="M323.52,86.73H85.92a14.82,14.82,0,0,1,14.14-10.37H309.39A14.82,14.82,0,0,1,323.52,86.73Z" style="fill: #7E57C2; transform-origin: 204.72px 81.545px;" id="elgpkm74bg77" class="animable"></path><circle cx="115.44" cy="81.55" r="2.1" style="fill: rgb(255, 255, 255); transform-origin: 115.44px 81.55px;" id="el41ihlrzzgv9" class="animable"></circle><circle cx="122.94" cy="81.55" r="2.1" style="fill: rgb(255, 255, 255); transform-origin: 122.94px 81.55px;" id="elaihdgpq7mzu" class="animable"></circle><path d="M132.53,81.55a2.11,2.11,0,1,1-2.1-2.11A2.1,2.1,0,0,1,132.53,81.55Z" style="fill: rgb(255, 255, 255); transform-origin: 130.42px 81.55px;" id="elwauepbthrvl" class="animable"></path><path d="M324.2,91.18v9.1h-239v-9.1a14.89,14.89,0,0,1,.68-4.45h237.6A14.89,14.89,0,0,1,324.2,91.18Z" style="fill: #7E57C2; transform-origin: 204.7px 93.505px;" id="el6vqs9bwcare" class="animable"></path><g id="elyckxz0foa7s"><path d="M324.2,91.18v9.1h-239v-9.1a14.89,14.89,0,0,1,.68-4.45h237.6A14.89,14.89,0,0,1,324.2,91.18Z" style="fill: rgb(255, 255, 255); opacity: 0.5; transform-origin: 204.7px 93.505px;" class="animable" id="el9ioq4ddar7"></path></g><path d="M113.35,100.28V234.89H99.73a15.13,15.13,0,0,1-14.49-10.38V100.28Z" style="fill: #7E57C2; transform-origin: 99.295px 167.585px;" id="elkvblai553y" class="animable"></path><g id="eljlj09vfhlx9"><path d="M113.35,100.28V234.89H99.73a15.13,15.13,0,0,1-14.49-10.38V100.28Z" style="opacity: 0.1; transform-origin: 99.295px 167.585px;" class="animable" id="el4b69eszne0s"></path></g><g id="elu8lr77kiyqg"><rect x="122.94" y="109.82" width="165.19" height="111.49" style="fill: #7E57C2; opacity: 0.1; transform-origin: 205.535px 165.565px;" class="animable" id="ela6qhvv6vy"></rect></g><g id="ellux10jniqom"><rect x="89.55" y="115.44" width="7.1" height="7.1" style="opacity: 0.2; transform-origin: 93.1px 118.99px;" class="animable" id="elpeoolk760as"></rect></g><g id="elnkwb8pj2bxa"><rect x="100.3" y="115.44" width="7.1" height="7.1" style="opacity: 0.2; transform-origin: 103.85px 118.99px;" class="animable" id="el5uioos1g0vl"></rect></g><path d="M222.06,165.12c6.05-7.84,10-18.13,9.18-28.18-.77-9.43-8.38-15.18-17.62-12.92-3.9,1-7.47,2.9-11.07,4.69-6,3-12.32,5.56-19,6.37s-13.29,0-19.8,2.55c-11.33,4.42-14.48,18.9-10.11,29.4,3.88,9.32,13.12,16.52,22.95,18.52" style="fill: none; stroke: rgb(38, 50, 56); stroke-linecap: round; stroke-linejoin: round; transform-origin: 191.549px 154.539px;" id="elonruzzgv4hi" class="animable"></path><g id="elp6l1xe4rh7j"><rect x="89.55" y="126.7" width="7.1" height="7.1" style="opacity: 0.2; transform-origin: 93.1px 130.25px;" class="animable" id="el9xkamrxho0o"></rect></g><g id="el8fxhosnecrd"><rect x="100.3" y="126.7" width="7.1" height="7.1" style="opacity: 0.2; transform-origin: 103.85px 130.25px;" class="animable" id="el73t0zqd6nn5"></rect></g><g id="el1mu7wse7vtf"><rect x="89.55" y="137.96" width="7.1" height="7.1" style="opacity: 0.2; transform-origin: 93.1px 141.51px;" class="animable" id="eltcxg9susn3f"></rect></g><g id="elmbomi02u69t"><rect x="100.3" y="137.96" width="7.1" height="7.1" style="opacity: 0.2; transform-origin: 103.85px 141.51px;" class="animable" id="elz5k0pydx0gr"></rect></g><g id="elejcn6pu2ad"><rect x="89.55" y="149.22" width="7.1" height="7.1" style="opacity: 0.2; transform-origin: 93.1px 152.77px;" class="animable" id="elheh8emf2n59"></rect></g><g id="el1e6ry6a28e"><rect x="100.3" y="149.22" width="7.1" height="7.1" style="opacity: 0.2; transform-origin: 103.85px 152.77px;" class="animable" id="elb1xm145c3x8"></rect></g><g id="el9y869fqbm44"><rect x="89.55" y="160.47" width="7.1" height="7.1" style="opacity: 0.2; transform-origin: 93.1px 164.02px;" class="animable" id="ela41etdpuigc"></rect></g><g id="el6t2lxfr57is"><rect x="100.3" y="160.47" width="7.1" height="7.1" style="opacity: 0.2; transform-origin: 103.85px 164.02px;" class="animable" id="elvkue51uokdi"></rect></g><g id="elaq75d30q62q"><rect x="89.55" y="171.73" width="7.1" height="7.1" style="opacity: 0.2; transform-origin: 93.1px 175.28px;" class="animable" id="eltb6qw1yremn"></rect></g><g id="ell8hb311zj3e"><rect x="100.3" y="171.73" width="7.1" height="7.1" style="opacity: 0.2; transform-origin: 103.85px 175.28px;" class="animable" id="el9izln9zlno"></rect></g><path d="M96.42,182.67a.81.81,0,1,1-.8-.81A.8.8,0,0,1,96.42,182.67Z" style="fill: rgb(38, 50, 56); transform-origin: 95.61px 182.67px;" id="eleed26tnyjsr" class="animable"></path><path d="M99.33,182.67a.81.81,0,1,1-.81-.81A.8.8,0,0,1,99.33,182.67Z" style="fill: rgb(38, 50, 56); transform-origin: 98.52px 182.67px;" id="elhtvw6azl21h" class="animable"></path><path d="M102.23,182.67a.81.81,0,1,1-.8-.81A.8.8,0,0,1,102.23,182.67Z" style="fill: rgb(38, 50, 56); transform-origin: 101.42px 182.67px;" id="el76vqg58ubdr" class="animable"></path><polygon points="201.1 175.08 199.83 175.97 199.07 170.42 203.7 173.24 202.55 174.02 204.34 176.66 202.93 177.82 201.1 175.08" style="fill: rgb(38, 50, 56); transform-origin: 201.705px 174.12px;" id="elddxio0ii2eg" class="animable"></polygon></g><g id="freepik--Character--inject-158" class="animable" style="transform-origin: 250px 283.334px;"><path d="M298.1,236.09S293,260.71,289.55,267s-23.23,6-23.23,6l-22.9-1.14s-4.36-14.27,14.31-6.87c0,0,15.75-3,21.76-8l6.3-25.83Z" style="fill: rgb(255, 139, 123); transform-origin: 270.539px 252.081px;" id="el54b49kuxdaw" class="animable"></path><polygon points="366.25 419.63 360.14 419.63 343.56 329.44 342.99 326.33 348.89 325.24 349.66 329.44 366.25 419.63" style="fill: #7E57C2; transform-origin: 354.62px 372.435px;" id="eln55umr9r0b" class="animable"></polygon><g id="el34dse32978v"><polygon points="366.25 419.63 360.14 419.63 343.56 329.44 342.99 326.33 348.89 325.24 349.66 329.44 366.25 419.63" style="fill: rgb(255, 255, 255); opacity: 0.5; transform-origin: 354.62px 372.435px;" class="animable" id="elrx0lxf35l3o"></polygon></g><polygon points="339.9 419.63 333.87 419.63 325.59 329.44 324.71 319.84 324.51 317.71 330.48 317.16 330.73 319.84 331.61 329.44 339.9 419.63" style="fill: #7E57C2; transform-origin: 332.205px 368.395px;" id="elbak11vr5dqt" class="animable"></polygon><g id="elzgnq9vrjbf"><polygon points="339.9 419.63 333.87 419.63 325.59 329.44 324.71 319.84 324.51 317.71 330.48 317.16 330.73 319.84 331.61 329.44 339.9 419.63" style="fill: rgb(255, 255, 255); opacity: 0.5; transform-origin: 332.205px 368.395px;" class="animable" id="elyjnk68jbmkm"></polygon></g><polygon points="278.24 320.98 277.6 329.44 270.74 419.63 264.72 419.63 271.57 329.44 272.25 320.53 278.24 320.98" style="fill: #7E57C2; transform-origin: 271.48px 370.08px;" id="elr9wc5ju7oa" class="animable"></polygon><g id="el14xl9wi4459"><polygon points="278.24 320.98 277.6 329.44 270.74 419.63 264.72 419.63 271.57 329.44 272.25 320.53 278.24 320.98" style="fill: rgb(255, 255, 255); opacity: 0.5; transform-origin: 271.48px 370.08px;" class="animable" id="eljn66mxyguge"></polygon></g><polygon points="260.85 321.25 259.5 329.44 244.63 419.63 238.55 419.63 253.43 329.44 254.94 320.27 260.85 321.25" style="fill: #7E57C2; transform-origin: 249.7px 369.95px;" id="elgo55lgauggt" class="animable"></polygon><g id="el11ssjql5btuf"><polygon points="260.85 321.25 259.5 329.44 244.63 419.63 238.55 419.63 253.43 329.44 254.94 320.27 260.85 321.25" style="fill: rgb(255, 255, 255); opacity: 0.5; transform-origin: 249.7px 369.95px;" class="animable" id="elonjfwm6e3jc"></polygon></g><path d="M358.92,318.43l-.55,1.41-2.63,6.65a4.62,4.62,0,0,1-4.33,2.95H252.35a4.67,4.67,0,0,1-4.4-3.08l-2.33-6.52-.55-1.55a4.65,4.65,0,0,1,4.39-6.22H354.59A4.65,4.65,0,0,1,358.92,318.43Z" style="fill: #7E57C2; transform-origin: 302.021px 320.755px;" id="el2s1uivx29bg" class="animable"></path><g id="elnizxf6glq9"><path d="M358.37,319.84l-2.63,6.65a4.62,4.62,0,0,1-4.33,2.95H252.35a4.67,4.67,0,0,1-4.4-3.08l-2.33-6.52Z" style="opacity: 0.3; transform-origin: 301.995px 324.64px;" class="animable" id="el4pcdqlzotil"></path></g><path d="M258.05,377.34l4.68-10.63a2.79,2.79,0,0,1,3.33-1.56l7.4,2.1a2.81,2.81,0,0,1,1.79,3.85c-2,4.52-5.8,12.94-7,15.95-1.63,4.19-3,9.24-5.18,10.65a2.91,2.91,0,0,1-.42.23,2.77,2.77,0,0,1-3.78-3.05c.58-3.52,1.21-10.1-.91-15.41A2.72,2.72,0,0,1,258.05,377.34Z" style="fill: rgb(38, 50, 56); transform-origin: 266.64px 381.589px;" id="el225l51p1prp" class="animable"></path><path d="M298.46,276.3s-50.55-6.9-65.82,7.46c0,0-9.46,12.91-4.91,38.18A105.28,105.28,0,0,0,246.64,365l13.27-11.28s-11.81-29.09-7.81-47.09l18.36-1.09,26.33-18,2.76-7.46Z" style="fill: rgb(38, 50, 56); transform-origin: 263.021px 319.821px;" id="el94oz8r6pm78" class="animable"></path><polygon points="247.86 370.08 242.91 364.07 261.05 349.15 264.48 352.72 247.86 370.08" style="fill: #7E57C2; transform-origin: 253.695px 359.615px;" id="elqaskch4tz0c" class="animable"></polygon><path d="M348.15,275.75s1.4,14.4-3.17,24.94-20.72,14.4-31.61,13.7-24.94-1.6-30.91.08c0,0-7.73,43.83-21.08,75.79l-16.16-1.4S254,327,255.41,312.63s.7-16.51,9.48-23.53S318.64,272.59,348.15,275.75Z" style="fill: rgb(38, 50, 56); transform-origin: 296.786px 332.692px;" id="eldcx63sm1u6g" class="animable"></path><polygon points="257.27 396.05 255.74 402.74 242.91 407.23 246.64 392.98 257.27 396.05" style="fill: rgb(255, 139, 123); transform-origin: 250.09px 400.105px;" id="el43f1h93lbck" class="animable"></polygon><path d="M242.74,406.81l10.9-4.05a2.8,2.8,0,0,1,3.44,1.31l3.64,6.77a2.8,2.8,0,0,1-1.52,4c-4.65,1.69-13.32,4.85-16.29,6.11-4.14,1.76-8.72,4.29-11.25,3.7a3.47,3.47,0,0,1-.46-.13,2.78,2.78,0,0,1-.44-4.85c2.93-2,8.09-6.16,10.42-11.38A2.73,2.73,0,0,1,242.74,406.81Z" style="fill: rgb(38, 50, 56); transform-origin: 245.304px 413.662px;" id="eld9mks8kbipl" class="animable"></path><path d="M298.1,279.61s-6.58-43.52-8-54.11,0-16,4-19.47,22.34-10.88,34.65-8.88,18.32,12.31,20,24l-2.86,1.43s3.66,40.56,2.33,54.59Z" style="fill: #7E57C2; transform-origin: 319.157px 238.211px;" id="elhqlaw8qrthr" class="animable"></path><path d="M294.09,206s-9.73,8.59-9.73,25.19L299.53,237Z" style="fill: #7E57C2; transform-origin: 291.945px 221.5px;" id="el9dmo77i1czs" class="animable"></path><path d="M346.12,222.42s5.51,19.48,4,27.53S334.9,268.8,315.84,272.4c0,0-8.47,1.48-13.35-2.54l-7.41-2.12,2.12-6.57A39.64,39.64,0,0,1,313.51,265s18.21-8.26,23.93-14.61c0,0-.64-12.92-3.81-22Z" style="fill: rgb(255, 139, 123); transform-origin: 322.731px 247.543px;" id="el43tyx0r6rte" class="animable"></path><polygon points="263.63 390.26 242.36 387.06 241.59 393.75 260.89 397.69 263.63 390.26" style="fill: #7E57C2; transform-origin: 252.61px 392.375px;" id="elmpdtlbwf2i" class="animable"></polygon><path d="M283.43,179.18a16.32,16.32,0,0,0,.46,11.77,15.69,15.69,0,0,1,.4-9c1-2.74,2.65-5.15,3.93-7.75s2.15-5.63,1.3-8.4c-.18-.55-.58-1.19-1.15-1.1s-.69.57-.85,1a17,17,0,0,0-1.26,3.57c-.14.95,0,1.89-.14,2.86C285.65,174.57,284.26,176.79,283.43,179.18Z" style="fill: rgb(38, 50, 56); transform-origin: 286.203px 177.821px;" id="elvqc9gqri7nn" class="animable"></path><path d="M289.32,170.75a4.39,4.39,0,0,0-2.82,3.69,7.61,7.61,0,0,1-2.93-9.26c2.31-6,5.44-14.51,14.76-13.27s28.86,4,21.86,24.82-13.94-4.61-13.94-4.61Z" style="fill: rgb(38, 50, 56); transform-origin: 302.342px 168.356px;" id="ellmbb1xjnzc" class="animable"></path><path d="M309.71,209.66c-8.49-.53-4.89-7.85-4.5-10.56a5.86,5.86,0,0,0-.74-3.4,11.15,11.15,0,0,0-1.44-2.14c-3.72,0-7.84-.5-10.79-3-3.3-2.75-4.61-7.88-5.15-11.95a61.3,61.3,0,0,1-.22-11.34c0-.56.08-1.11.1-1.66.13-2.17.27-4.33.35-6.45,0,0,8.23-1.81,15.58-.13,5.44,1.24,9.26,5.76,10.91,12.87a37.52,37.52,0,0,1,.91,8.25c.15,11.82,4.78,13.89,6.59,17.36S318.22,210.16,309.71,209.66Z" style="fill: rgb(255, 139, 123); transform-origin: 304.195px 183.998px;" id="el1vyz1ppna47" class="animable"></path><path d="M294.54,181.17l-2-7.61-1.37,8S292.28,182.47,294.54,181.17Z" style="fill: rgb(255, 86, 82); transform-origin: 292.855px 177.715px;" id="el2ydbl2v8myh" class="animable"></path><path d="M300.42,182.47s-1.25,2.68-5.23,3.15" style="fill: none; stroke: rgb(38, 50, 56); stroke-linecap: round; stroke-linejoin: round; stroke-width: 0.5px; transform-origin: 297.805px 184.045px;" id="elw4gw8ocxw3i" class="animable"></path><path d="M300,169.58a3.94,3.94,0,0,0-4.4-1" style="fill: none; stroke: rgb(38, 50, 56); stroke-linecap: round; stroke-linejoin: round; stroke-width: 0.75px; transform-origin: 297.8px 168.935px;" id="el4m8c5desljp" class="animable"></path><path d="M296.84,173.31c.07.77.52,1.36,1,1.32s.82-.7.76-1.47-.52-1.36-1-1.32S296.78,172.54,296.84,173.31Z" style="fill: rgb(38, 50, 56); transform-origin: 297.72px 173.235px;" id="eloyg0z3iqqt" class="animable"></path><path d="M288,175.49c.07.77.52,1.36,1,1.32s.82-.7.76-1.47-.52-1.37-1-1.32S288,174.72,288,175.49Z" style="fill: rgb(38, 50, 56); transform-origin: 288.883px 175.415px;" id="elc8625ucyhip" class="animable"></path><path d="M286.72,165.73a22.9,22.9,0,0,0,8.83-4.15c2.94,9.72,15.46,10.07,18.59,10.07-1.64-7.11-5.58-12.05-11-13.29-7.34-1.68-16,.26-16,.26C287.06,160.75,286.84,163.57,286.72,165.73Z" style="fill: rgb(38, 50, 56); transform-origin: 300.43px 164.663px;" id="eldd6zx3vbyp" class="animable"></path><path d="M297.6,171.84l-2.05-.39S296.08,172.94,297.6,171.84Z" style="fill: rgb(38, 50, 56); transform-origin: 296.575px 171.847px;" id="elt2plrh3t03" class="animable"></path><path d="M289.17,174.06l-2.05-.38S287.65,175.16,289.17,174.06Z" style="fill: rgb(38, 50, 56); transform-origin: 288.145px 174.073px;" id="el8q247eydxrl" class="animable"></path><g id="el67819ighxil"><ellipse cx="308.19" cy="151.52" rx="7.87" ry="8.26" style="fill: rgb(38, 50, 56); transform-origin: 308.19px 151.52px; transform: rotate(-76.43deg);" class="animable" id="elw7g4ojok30l"></ellipse></g><path d="M292.87,163l-1.66,2.18s4.39-.76,5.36-3.76-2.69-.65-2.69-.65Z" style="fill: rgb(38, 50, 56); transform-origin: 293.972px 162.537px;" id="elb4jukiocdp" class="animable"></path><g id="el6e54v83fhh"><path d="M308.64,191.18a15.54,15.54,0,0,1-4.17,4.52,11.15,11.15,0,0,0-1.44-2.14A20.44,20.44,0,0,0,308.64,191.18Z" style="opacity: 0.1; transform-origin: 305.835px 193.44px;" class="animable" id="elon2njlwfbgk"></path></g><path d="M286.12,172.07a3.17,3.17,0,0,1,3.46-2.17" style="fill: none; stroke: rgb(38, 50, 56); stroke-linecap: round; stroke-linejoin: round; stroke-width: 0.75px; transform-origin: 287.85px 170.97px;" id="el33ass7s3gs" class="animable"></path><path d="M311.58,172.87a7.85,7.85,0,0,1,.93-1.14c1.17-1.19,3.08-2.75,4.85-1.88,2.14,1,1.69,4.05,1.09,5.89a6.62,6.62,0,0,1-3.08,3.89c-2.11,1.09-5.25.51-5.23-2.33A8.06,8.06,0,0,1,311.58,172.87Z" style="fill: rgb(255, 139, 123); transform-origin: 314.543px 174.871px;" id="elunwrzslbpqc" class="animable"></path><path d="M313.81,169.6s-3.5,5.9-2.07,11.12.64,7.68-.35,10.45c0,0,.39-7.93-1.25-10.79-2.5-4.37,1-10.8,1-10.8Z" style="fill: rgb(38, 50, 56); transform-origin: 311.525px 180.375px;" id="elyp798kkquf" class="animable"></path><path d="M300.29,152s9.06,1.08,14.51,4.8C314.8,156.75,310.07,150.46,300.29,152Z" style="fill: #7E57C2; transform-origin: 307.545px 154.279px;" id="elscrnv5ky4j" class="animable"></path><path d="M188.44,269.52h57a3.81,3.81,0,0,0,3.7-4.73L239,224.38a3.81,3.81,0,0,0-3.7-2.89h-57a3.81,3.81,0,0,0-3.7,4.73l10.08,40.41A3.81,3.81,0,0,0,188.44,269.52Z" style="fill: rgb(38, 50, 56); transform-origin: 211.87px 245.505px;" id="elrp1j02b8aqd" class="animable"></path><g id="elae2484za4vp"><path d="M243.47,266.33h38.74a0,0,0,0,1,0,0v3a0,0,0,0,1,0,0H245.45a2,2,0,0,1-2-2v-1.06A0,0,0,0,1,243.47,266.33Z" style="fill: rgb(38, 50, 56); transform-origin: 262.83px 267.8px; transform: rotate(180deg);" class="animable" id="el6wrawvsxhap"></path></g><g id="elycmwpyry8h"><path d="M188.44,269.52h57a3.81,3.81,0,0,0,3.7-4.73L239,224.38a3.81,3.81,0,0,0-3.7-2.89h-57a3.81,3.81,0,0,0-3.7,4.73l10.08,40.41A3.81,3.81,0,0,0,188.44,269.52Z" style="opacity: 0.3; transform-origin: 211.87px 245.505px;" class="animable" id="elul0x20m132"></path></g><path d="M185.45,269.52h57a3.81,3.81,0,0,0,3.7-4.73L236,224.38a3.81,3.81,0,0,0-3.7-2.89h-57a3.81,3.81,0,0,0-3.7,4.73l10.08,40.41A3.82,3.82,0,0,0,185.45,269.52Z" style="fill: rgb(38, 50, 56); transform-origin: 208.875px 245.505px;" id="elb8svasiohh5" class="animable"></path><g id="elv2tfhjvbdtf"><path d="M185.45,269.52h57a3.81,3.81,0,0,0,3.7-4.73L236,224.38a3.81,3.81,0,0,0-3.7-2.89h-57a3.81,3.81,0,0,0-3.7,4.73l10.08,40.41A3.82,3.82,0,0,0,185.45,269.52Z" style="fill: rgb(255, 255, 255); opacity: 0.2; transform-origin: 208.875px 245.505px;" class="animable" id="el24fji40dv83j"></path></g><g id="elkotpc04sjm"><path d="M211.41,244.32c.79,3.37-.8,6.64-3.56,7.29s-5.66-1.55-6.46-4.92.8-6.64,3.56-7.29S210.61,241,211.41,244.32Z" style="opacity: 0.3; transform-origin: 206.398px 245.506px;" class="animable" id="el0g7w2otiduj"></path></g><polygon points="171.62 273.03 150.59 403.45 145.93 403.45 167.08 272.29 171.62 273.03" style="fill: #7E57C2; transform-origin: 158.775px 337.87px;" id="el6dgkaap842o" class="animable"></polygon><g id="el2v8afe1awzl"><polygon points="171.62 273.03 150.59 403.45 145.93 403.45 167.08 272.29 171.62 273.03" style="fill: rgb(255, 255, 255); opacity: 0.5; transform-origin: 158.775px 337.87px;" class="animable" id="elw6dh0dngq5g"></polygon></g><polygon points="202.56 403.45 197.89 403.45 177.57 273.02 182.12 272.31 202.56 403.45" style="fill: #7E57C2; transform-origin: 190.065px 337.88px;" id="elsa82cri90qa" class="animable"></polygon><g id="elar2ppnfmmq"><polygon points="202.56 403.45 197.89 403.45 177.57 273.02 182.12 272.31 202.56 403.45" style="fill: rgb(255, 255, 255); opacity: 0.5; transform-origin: 190.065px 337.88px;" class="animable" id="elv885cx3c7ll"></polygon></g><polygon points="251.08 273.03 230.05 403.45 225.38 403.45 246.53 272.29 251.08 273.03" style="fill: #7E57C2; transform-origin: 238.23px 337.87px;" id="eldhkijimkfdk" class="animable"></polygon><g id="elsyuzcp3mte"><polygon points="251.08 273.03 230.05 403.45 225.38 403.45 246.53 272.29 251.08 273.03" style="fill: rgb(255, 255, 255); opacity: 0.5; transform-origin: 238.23px 337.87px;" class="animable" id="elkcpx65gnwye"></polygon></g><polygon points="321.27 403.45 316.61 403.45 296.28 273.02 300.83 272.31 321.27 403.45" style="fill: #7E57C2; transform-origin: 308.775px 337.88px;" id="elrma9n4nej3" class="animable"></polygon><g id="elde8c5qomvi"><polygon points="321.27 403.45 316.61 403.45 296.28 273.02 300.83 272.31 321.27 403.45" style="fill: rgb(255, 255, 255); opacity: 0.5; transform-origin: 308.775px 337.88px;" class="animable" id="el7vlc87vvxre"></polygon></g><rect x="133.75" y="268.58" width="193.25" height="6.07" style="fill: #7E57C2; transform-origin: 230.375px 271.615px;" id="elkbqbefv8zce" class="animable"></rect><g id="eltsvuhkctwg"><rect x="249.2" y="268.58" width="77.89" height="6.07" style="opacity: 0.3; transform-origin: 288.145px 271.615px;" class="animable" id="elnabbzyj68vo"></rect></g><path d="M320.07,268.58H288.15a1.78,1.78,0,0,1,1.78-1.78h28.35a1.79,1.79,0,0,1,1.79,1.78Z" style="fill: rgb(38, 50, 56); transform-origin: 304.11px 267.69px;" id="ellnrr6lfhc9" class="animable"></path><path d="M308.48,251.57l-4.3,10.32c-.79-.16-1.5-.27-2-.34l4.48-10.75a1,1,0,0,1,1.85.77Z" style="fill: rgb(38, 50, 56); transform-origin: 305.383px 256.038px;" id="elhvbeli8u06s" class="animable"></path><ellipse cx="311.52" cy="231.91" rx="10" ry="11.58" style="fill: rgb(38, 50, 56); transform-origin: 311.52px 231.91px;" id="elf9g5up1hatc" class="animable"></ellipse><polygon points="333.63 228.35 332.95 225.94 348.26 218.31 348.78 221.2 333.63 228.35" style="fill: rgb(38, 50, 56); transform-origin: 340.865px 223.33px;" id="ela8lf21y37wo" class="animable"></polygon><g id="el1yv94vs9w6wh"><polygon points="332.95 225.94 328.31 218.99 335.68 236.21 332.95 225.94" style="opacity: 0.1; transform-origin: 331.995px 227.6px;" class="animable" id="elx9z7087zlfd"></polygon></g><polygon points="291.27 233.83 290.85 231.22 284.36 228.75 284.36 231.22 291.27 233.83" style="fill: rgb(38, 50, 56); transform-origin: 287.815px 231.29px;" id="elnu7dejl7yqg" class="animable"></polygon><g id="eloaoykjwwq7n"><path d="M291.27,233.83c-.13-.5-1.72-11.41-1.72-11.41v10.76Z" style="opacity: 0.1; transform-origin: 290.41px 228.125px;" class="animable" id="elnjpzbp8xe4"></path></g><path d="M304.2,200.94s-4.38,9.78,5.94,9.47,12.92-7.93,13.44-13.6l-3.22-1.11s-1.86,8-8.84,9.59-6.4-5.69-6.4-5.69Z" style="fill: rgb(38, 50, 56); transform-origin: 313.428px 203.059px;" id="elx5fov62dbdc" class="animable"></path><g id="eln3ssn5c3n9"><polygon points="245.56 397.09 256.45 399.65 257.07 396.92 246.19 394.69 245.56 397.09" style="opacity: 0.1; transform-origin: 251.315px 397.17px;" class="animable" id="elhuoovganrmv"></polygon></g></g><defs>     <filter id="active" height="200%">         <feMorphology in="SourceAlpha" result="DILATED" operator="dilate" radius="2"></feMorphology>                <feFlood flood-color="#32DFEC" flood-opacity="1" result="PINK"></feFlood>        <feComposite in="PINK" in2="DILATED" operator="in" result="OUTLINE"></feComposite>        <feMerge>            <feMergeNode in="OUTLINE"></feMergeNode>            <feMergeNode in="SourceGraphic"></feMergeNode>        </feMerge>    </filter>    <filter id="hover" height="200%">        <feMorphology in="SourceAlpha" result="DILATED" operator="dilate" radius="2"></feMorphology>                <feFlood flood-color="#ff0000" flood-opacity="0.5" result="PINK"></feFlood>        <feComposite in="PINK" in2="DILATED" operator="in" result="OUTLINE"></feComposite>        <feMerge>            <feMergeNode in="OUTLINE"></feMergeNode>            <feMergeNode in="SourceGraphic"></feMergeNode>        </feMerge>            <feColorMatrix type="matrix" values="0   0   0   0   0                0   1   0   0   0                0   0   0   0   0                0   0   0   1   0 "></feColorMatrix>    </filter></defs></svg>